<svg xmlns="http://www.w3.org/2000/svg" viewBox="0 0 512 512" role="img" aria-label="O Jardim RPG">
  <defs>
    <radialGradient id="bg" cx="50%" cy="38%" r="75%">
      <stop offset="0%" stop-color="#151226"/>
      <stop offset="100%" stop-color="#08070f"/>
    </radialGradient>
    <linearGradient id="ouro" x1="0" y1="0" x2="0" y2="1">
      <stop offset="0%" stop-color="#e7cf6a"/>
      <stop offset="100%" stop-color="#b8901f"/>
    </linearGradient>
  </defs>
  <!-- fundo (maskable: conteúdo dentro da zona segura central) -->
  <rect width="512" height="512" rx="112" fill="url(#bg)"/>
  <g stroke="url(#ouro)" fill="none" stroke-linecap="round" stroke-linejoin="round">
    <!-- tronco -->
    <path d="M256 430 L256 250" stroke-width="18"/>
    <!-- galhos principais -->
    <path d="M256 300 C220 260 196 232 180 196" stroke-width="12"/>
    <path d="M256 300 C292 260 316 232 332 196" stroke-width="12"/>
    <path d="M256 262 C246 224 240 196 244 158" stroke-width="12"/>
    <path d="M256 262 C266 224 272 196 268 158" stroke-width="12"/>
    <!-- galhos finos -->
    <path d="M180 196 C168 176 150 166 132 160" stroke-width="8"/>
    <path d="M180 196 C186 172 182 152 172 132" stroke-width="8"/>
    <path d="M332 196 C344 176 362 166 380 160" stroke-width="8"/>
    <path d="M332 196 C326 172 330 152 340 132" stroke-width="8"/>
    <path d="M244 158 C230 138 214 128 196 122" stroke-width="8"/>
    <path d="M268 158 C282 138 298 128 316 122" stroke-width="8"/>
  </g>
  <!-- folhas/faíscas nas pontas -->
  <g fill="#e7cf6a">
    <circle cx="132" cy="160" r="9"/>
    <circle cx="172" cy="132" r="9"/>
    <circle cx="380" cy="160" r="9"/>
    <circle cx="340" cy="132" r="9"/>
    <circle cx="196" cy="122" r="9"/>
    <circle cx="316" cy="122" r="9"/>
    <circle cx="256" cy="104" r="11"/>
  </g>
  <!-- base/raiz -->
  <path d="M206 430 Q256 452 306 430" stroke="url(#ouro)" stroke-width="16" fill="none" stroke-linecap="round"/>
</svg>
